<svg width="25" height="25" viewBox="0 0 25 25" fill="none" xmlns="http://www.w3.org/2000/svg">
<path d="M16.6667 12.4998C16.6667 13.6048 16.2277 14.6646 15.4463 15.446C14.6649 16.2274 13.6051 16.6664 12.5 16.6664C11.395 16.6664 10.3351 16.2274 9.55374 15.446C8.77234 14.6646 8.33335 13.6048 8.33335 12.4998C8.33335 11.3947 8.77234 10.3349 9.55374 9.55348C10.3351 8.77208 11.395 8.33309 12.5 8.33309C13.6051 8.33309 14.6649 8.77208 15.4463 9.55348C16.2277 10.3349 16.6667 11.3947 16.6667 12.4998ZM14.5834 12.4998C14.5834 11.9472 14.3639 11.4173 13.9732 11.0266C13.5825 10.6359 13.0526 10.4164 12.5 10.4164C11.9475 10.4164 11.4176 10.6359 11.0269 11.0266C10.6362 11.4173 10.4167 11.9472 10.4167 12.4998C10.4167 13.0523 10.6362 13.5822 11.0269 13.9729C11.4176 14.3636 11.9475 14.5831 12.5 14.5831C13.0526 14.5831 13.5825 14.3636 13.9732 13.9729C14.3639 13.5822 14.5834 13.0523 14.5834 12.4998ZM2.08335 10.4164C2.08335 10.156 2.27085 9.93725 2.52085 9.89559L5.28127 9.51017C5.54168 8.85392 5.89585 8.29142 6.31252 7.74976L5.26043 5.156C5.1771 4.92684 5.26044 4.64559 5.4896 4.52059L9.09377 2.43726C9.2011 2.3735 9.32798 2.35102 9.45068 2.37403C9.57337 2.39704 9.68349 2.46395 9.76044 2.56226L11.4896 4.76017L12.5 4.68726L13.5417 4.76017L15.2396 2.56226C15.3165 2.46395 15.4267 2.39704 15.5494 2.37403C15.6721 2.35103 15.7989 2.3735 15.9063 2.43726L19.5104 4.52059C19.7396 4.64559 19.8334 4.92684 19.7396 5.15601L18.6979 7.74976C19.1042 8.29142 19.4584 8.85392 19.7188 9.51017L22.4792 9.89559C22.7292 9.93726 22.9167 10.156 22.9167 10.4164L22.9167 14.5831C22.9167 14.8435 22.7292 15.0623 22.4792 15.1039L19.7188 15.4893C19.4584 16.1456 19.1042 16.7081 18.6979 17.2498L19.7396 19.8435C19.8334 20.0727 19.7396 20.3539 19.5104 20.4789L15.9063 22.5623C15.6771 22.6977 15.3959 22.6352 15.2396 22.4373L13.5417 20.2393L12.5 20.3123L11.4584 20.2393L9.76044 22.4373C9.60419 22.6352 9.32293 22.6977 9.09377 22.5623L5.4896 20.4789C5.26044 20.3539 5.16668 20.0727 5.26043 19.8435L6.3021 17.2498C5.89585 16.7081 5.54168 16.1456 5.28127 15.4893L2.52085 15.1039C2.27085 15.0623 2.08335 14.8435 2.08335 14.5831L2.08335 10.4164ZM20.8334 11.7185L18.1146 11.3331C17.8542 10.0831 17.1875 8.97892 16.2604 8.17684L17.3438 5.66642L15.9896 4.88517L14.375 7.08309C13.1597 6.66642 11.8403 6.66642 10.625 7.08309L9.00002 4.87476L7.64585 5.656L8.72919 8.18726C7.81252 8.98934 7.14585 10.0831 6.89585 11.3227L4.16668 11.7081L4.16668 13.2914L6.88544 13.6768C7.14585 14.9164 7.81252 16.0102 8.72919 16.8123L7.64585 19.3435L9.00002 20.1248L10.6146 17.9164C11.8334 18.3331 13.1563 18.3331 14.375 17.9164L15.9896 20.1143L17.3438 19.3331L16.2604 16.8227C17.208 16.0042 17.8566 14.8939 18.1042 13.6664L20.8334 13.281L20.8334 11.7185Z" fill="white"/>
</svg>
