<svg width="260" height="71" viewBox="0 0 260 71" fill="none" xmlns="http://www.w3.org/2000/svg">
<rect opacity="0.15" x="18" y="2" width="241" height="32" fill="#116A4C"/>
<rect opacity="0.15" width="241" height="16" transform="matrix(1 0 0 -1 18 50)" fill="#CAB600"/>
<rect opacity="0.15" width="241" height="16" transform="matrix(1 0 0 -1 18 66)" fill="#F66D26"/>
<path d="M18.1172 1.40234V66.2405" stroke="#C8C8C8"/>
<path d="M15.7011 66.2402H18.1172" stroke="#C8C8C8"/>
<path d="M11.7607 69.0274C11.4397 69.0274 11.1663 68.9401 10.9404 68.7654C10.7146 68.5892 10.542 68.3343 10.4227 68.0004C10.3034 67.6652 10.2437 67.2604 10.2437 66.786C10.2437 66.3144 10.3034 65.9117 10.4227 65.5779C10.5434 65.2426 10.7167 64.9869 10.9426 64.8108C11.1698 64.6333 11.4426 64.5445 11.7607 64.5445C12.0789 64.5445 12.3509 64.6333 12.5768 64.8108C12.8041 64.9869 12.9774 65.2426 13.0967 65.5779C13.2174 65.9117 13.2778 66.3144 13.2778 66.786C13.2778 67.2604 13.2181 67.6652 13.0988 68.0004C12.9795 68.3343 12.8069 68.5892 12.581 68.7654C12.3552 68.9401 12.0818 69.0274 11.7607 69.0274ZM11.7607 68.5587C12.0789 68.5587 12.3261 68.4053 12.5022 68.0985C12.6784 67.7916 12.7664 67.3541 12.7664 66.786C12.7664 66.4081 12.7259 66.0864 12.645 65.8208C12.5654 65.5551 12.4504 65.3527 12.2998 65.2135C12.1507 65.0743 11.971 65.0047 11.7607 65.0047C11.4454 65.0047 11.1989 65.1602 11.0214 65.4713C10.8438 65.781 10.7551 66.2192 10.7551 66.786C10.7551 67.1638 10.7948 67.4848 10.8744 67.749C10.9539 68.0132 11.0683 68.2142 11.2174 68.352C11.368 68.4898 11.5491 68.5587 11.7607 68.5587Z" fill="#C8C8C8"/>
<path d="M15.7011 33.8213H18.1172" stroke="#C8C8C8"/>
<path d="M8.05069 36.6085C7.80069 36.6085 7.57554 36.5588 7.37526 36.4593C7.17498 36.3599 7.01447 36.2235 6.89373 36.0502C6.77299 35.877 6.70694 35.6795 6.69557 35.4579H7.20694C7.22682 35.6554 7.31631 35.8187 7.4754 35.948C7.63591 36.0758 7.82768 36.1397 8.05069 36.1397C8.22966 36.1397 8.38876 36.0978 8.52796 36.014C8.66858 35.9302 8.77867 35.8152 8.85822 35.6689C8.93918 35.5211 8.97966 35.3542 8.97966 35.1681C8.97966 34.9778 8.93776 34.8081 8.85395 34.6589C8.77157 34.5083 8.65793 34.3897 8.51304 34.3031C8.36816 34.2164 8.20268 34.1724 8.0166 34.171C7.88307 34.1696 7.746 34.1902 7.60537 34.2328C7.46475 34.274 7.34898 34.3272 7.25807 34.3926L6.76375 34.3329L7.02796 32.1852H9.295V32.6539H7.47114L7.31773 33.9409H7.3433C7.43279 33.8699 7.545 33.8109 7.67995 33.764C7.81489 33.7172 7.95552 33.6937 8.10182 33.6937C8.36887 33.6937 8.60679 33.7576 8.8156 33.8855C9.02583 34.0119 9.1906 34.1852 9.30992 34.4054C9.43066 34.6255 9.49103 34.877 9.49103 35.1596C9.49103 35.438 9.42853 35.6866 9.30353 35.9054C9.17995 36.1227 9.00949 36.2946 8.79216 36.421C8.57483 36.546 8.32768 36.6085 8.05069 36.6085ZM11.7607 36.6085C11.4397 36.6085 11.1663 36.5211 10.9404 36.3464C10.7146 36.1703 10.542 35.9153 10.4227 35.5815C10.3034 35.2463 10.2437 34.8414 10.2437 34.367C10.2437 33.8954 10.3034 33.4927 10.4227 33.1589C10.5434 32.8237 10.7167 32.568 10.9426 32.3919C11.1698 32.2143 11.4426 32.1255 11.7607 32.1255C12.0789 32.1255 12.3509 32.2143 12.5768 32.3919C12.8041 32.568 12.9774 32.8237 13.0967 33.1589C13.2174 33.4927 13.2778 33.8954 13.2778 34.367C13.2778 34.8414 13.2181 35.2463 13.0988 35.5815C12.9795 35.9153 12.8069 36.1703 12.581 36.3464C12.3552 36.5211 12.0818 36.6085 11.7607 36.6085ZM11.7607 36.1397C12.0789 36.1397 12.3261 35.9863 12.5022 35.6795C12.6784 35.3727 12.7664 34.9352 12.7664 34.367C12.7664 33.9892 12.7259 33.6674 12.645 33.4018C12.5654 33.1362 12.4504 32.9338 12.2998 32.7946C12.1507 32.6554 11.971 32.5858 11.7607 32.5858C11.4454 32.5858 11.1989 32.7413 11.0214 33.0524C10.8438 33.362 10.7551 33.8002 10.7551 34.367C10.7551 34.7449 10.7948 35.0659 10.8744 35.3301C10.9539 35.5943 11.0683 35.7953 11.2174 35.9331C11.368 36.0708 11.5491 36.1397 11.7607 36.1397Z" fill="#C8C8C8"/>
<path d="M15.7011 1.40234H18.1172" stroke="#C8C8C8"/>
<path d="M5.33253 1.63636V6H4.80412V2.19034H4.77855L3.71321 2.89773V2.3608L4.80412 1.63636H5.33253ZM8.0108 6.05966C7.68977 6.05966 7.41634 5.9723 7.19049 5.79759C6.96463 5.62145 6.79205 5.36648 6.67273 5.03267C6.55341 4.69744 6.49375 4.29261 6.49375 3.81818C6.49375 3.34659 6.55341 2.94389 6.67273 2.61009C6.79347 2.27486 6.96676 2.01918 7.19262 1.84304C7.41989 1.66548 7.69262 1.5767 8.0108 1.5767C8.32898 1.5767 8.601 1.66548 8.82685 1.84304C9.05412 2.01918 9.22742 2.27486 9.34674 2.61009C9.46747 2.94389 9.52784 3.34659 9.52784 3.81818C9.52784 4.29261 9.46818 4.69744 9.34887 5.03267C9.22955 5.36648 9.05696 5.62145 8.83111 5.79759C8.60526 5.9723 8.33182 6.05966 8.0108 6.05966ZM8.0108 5.59091C8.32898 5.59091 8.57614 5.4375 8.75227 5.13068C8.92841 4.82386 9.01648 4.38636 9.01648 3.81818C9.01648 3.44034 8.976 3.11861 8.89503 2.85298C8.81549 2.58736 8.70043 2.38494 8.54986 2.24574C8.40071 2.10653 8.22102 2.03693 8.0108 2.03693C7.69546 2.03693 7.44901 2.19247 7.27145 2.50355C7.09389 2.81321 7.00512 3.25142 7.00512 3.81818C7.00512 4.19602 7.04489 4.51705 7.12443 4.78125C7.20398 5.04545 7.31833 5.24645 7.46747 5.38423C7.61804 5.52202 7.79915 5.59091 8.0108 5.59091ZM11.7608 6.05966C11.4398 6.05966 11.1663 5.9723 10.9405 5.79759C10.7146 5.62145 10.542 5.36648 10.4227 5.03267C10.3034 4.69744 10.2438 4.29261 10.2438 3.81818C10.2438 3.34659 10.3034 2.94389 10.4227 2.61009C10.5435 2.27486 10.7168 2.01918 10.9426 1.84304C11.1699 1.66548 11.4426 1.5767 11.7608 1.5767C12.079 1.5767 12.351 1.66548 12.5768 1.84304C12.8041 2.01918 12.9774 2.27486 13.0967 2.61009C13.2175 2.94389 13.2778 3.34659 13.2778 3.81818C13.2778 4.29261 13.2182 4.69744 13.0989 5.03267C12.9795 5.36648 12.807 5.62145 12.5811 5.79759C12.3553 5.9723 12.0818 6.05966 11.7608 6.05966ZM11.7608 5.59091C12.079 5.59091 12.3261 5.4375 12.5023 5.13068C12.6784 4.82386 12.7665 4.38636 12.7665 3.81818C12.7665 3.44034 12.726 3.11861 12.645 2.85298C12.5655 2.58736 12.4504 2.38494 12.2999 2.24574C12.1507 2.10653 11.971 2.03693 11.7608 2.03693C11.4455 2.03693 11.199 2.19247 11.0215 2.50355C10.8439 2.81321 10.7551 3.25142 10.7551 3.81818C10.7551 4.19602 10.7949 4.51705 10.8744 4.78125C10.954 5.04545 11.0683 5.24645 11.2175 5.38423C11.368 5.52202 11.5491 5.59091 11.7608 5.59091Z" fill="#C8C8C8"/>
<path d="M18.1172 66.2402H258.924" stroke="#C8C8C8" stroke-opacity="0.5"/>
<path d="M18.1172 50.0312H258.924" stroke="#C8C8C8" stroke-opacity="0.5"/>
<path d="M18.1172 33.8213H258.924" stroke="#C8C8C8" stroke-opacity="0.5"/>
<path d="M18.1172 17.6123H258.924" stroke="#C8C8C8" stroke-opacity="0.5"/>
<path d="M18.1172 1.40234H258.924" stroke="#C8C8C8" stroke-opacity="0.5"/>
<path d="M18.1172 1.40234V66.2405" stroke="#C8C8C8" stroke-opacity="0.5"/>
<path d="M42.1979 1.40234V66.2405" stroke="#C8C8C8" stroke-opacity="0.5"/>
<path d="M66.2786 1.40234V66.2405" stroke="#C8C8C8" stroke-opacity="0.5"/>
<path d="M90.3593 1.40234V66.2405" stroke="#C8C8C8" stroke-opacity="0.5"/>
<path d="M114.44 1.40234V66.2405" stroke="#C8C8C8" stroke-opacity="0.5"/>
<path d="M138.521 1.40234V66.2405" stroke="#C8C8C8" stroke-opacity="0.5"/>
<path d="M162.601 1.40234V66.2405" stroke="#C8C8C8" stroke-opacity="0.5"/>
<path d="M186.682 1.40234V66.2405" stroke="#C8C8C8" stroke-opacity="0.5"/>
<path d="M210.763 1.40234V66.2405" stroke="#C8C8C8" stroke-opacity="0.5"/>
<path d="M234.843 1.40234V66.2405" stroke="#C8C8C8" stroke-opacity="0.5"/>
<path d="M258.924 1.40234V66.2405" stroke="#C8C8C8" stroke-opacity="0.5"/>
<path d="M18.2767 7.23828L42.1769 8.95285L66.0771 11.3089L90.3592 13.6649L114.44 15.0785L138.521 16.9634L162.601 18.8482L186.682 20.2618L210.763 21.6755L234.843 23.0891L258.685 24.5027" stroke="#00CA99" stroke-width="2"/>
</svg>
